HIERARCHY
ROOT Hips
{
	OFFSET	0.00	0.00	0.00
	CHANNELS 6 Xposition Yposition Zposition Zrotation Xrotation Yrotation
	JOINT LeftUpLeg
	{
		OFFSET	 0.126116	-0.014019	-0.065224
		CHANNELS 3 Zrotation Xrotation Yrotation
		JOINT LeftLeg
		{
			OFFSET	 0.000000	 0.000000	 0.569914
			CHANNELS 3 Zrotation Xrotation Yrotation
			JOINT LeftFoot
			{
				OFFSET	 0.000000	 0.000000	 0.544423
				CHANNELS 3 Zrotation Xrotation Yrotation
				JOINT LeftToeBase
				{
					OFFSET	 0.000000	 0.000000	 0.207117
					CHANNELS 3 Zrotation Xrotation Yrotation
					End Site
					{
						OFFSET	 0.000000	 0.000000	 0.207117
					}
				}
			}
		}
	}
	JOINT RightUpLeg
	{
		OFFSET	-0.124023	-0.008373	-0.065224
		CHANNELS 3 Zrotation Xrotation Yrotation
		JOINT RightLeg
		{
			OFFSET	 0.000000	 0.000000	 0.570047
			CHANNELS 3 Zrotation Xrotation Yrotation
			JOINT RightFoot
			{
				OFFSET	 0.000000	 0.000000	 0.544354
				CHANNELS 3 Zrotation Xrotation Yrotation
				JOINT RightToeBase
				{
					OFFSET	 0.000000	 0.000000	 0.207540
					CHANNELS 3 Zrotation Xrotation Yrotation
					End Site
					{
						OFFSET	 0.000000	 0.000000	 0.207540
					}
				}
			}
		}
	}
	JOINT Spine
	{
		OFFSET	 0.000184	-0.007763	 0.117403
		CHANNELS 3 Zrotation Xrotation Yrotation
		JOINT Spine1
		{
			OFFSET	 0.000000	 0.000000	 0.137269
			CHANNELS 3 Zrotation Xrotation Yrotation
			JOINT Spine2
			{
				OFFSET	 0.000000	 0.000000	 0.156879
				CHANNELS 3 Zrotation Xrotation Yrotation
				JOINT LeftShoulder
				{
					OFFSET	 0.080501	-0.002496	 0.160144
					CHANNELS 3 Zrotation Xrotation Yrotation
					JOINT LeftArm
					{
						OFFSET	 0.000000	 0.000000	 0.164363
						CHANNELS 3 Zrotation Xrotation Yrotation
						JOINT LeftForeArm
						{
							OFFSET	 0.000000	 0.000000	 0.364576
							CHANNELS 3 Zrotation Xrotation Yrotation
							JOINT LeftHand
							{
								OFFSET	 0.000000	 0.000000	 0.360812
								CHANNELS 3 Zrotation Xrotation Yrotation
								JOINT LeftHandIndex1
								{
									OFFSET	 0.000000	 0.000000	 0.086006
									CHANNELS 3 Zrotation Xrotation Yrotation
									JOINT LeftHandIndex2
									{
										OFFSET	 0.000000	 0.000000	 0.047237
										CHANNELS 3 Zrotation Xrotation Yrotation
										JOINT LeftHandIndex3
										{
											OFFSET	-0.004284	-0.000551	 0.038165
											CHANNELS 3 Zrotation Xrotation Yrotation
											End Site
											{
												OFFSET	-0.004284	-0.000551	 0.038165
											}
										}
									}
								}
							}
						}
					}
				}
				JOINT Neck
				{
					OFFSET	 0.000000	 0.000000	 0.176489
					CHANNELS 3 Zrotation Xrotation Yrotation
					JOINT Head
					{
						OFFSET	 0.000000	-0.001747	 0.077940
						CHANNELS 3 Zrotation Xrotation Yrotation
						End Site
						{
							OFFSET	 0.000000	-0.001747	 0.077940
						}
					}
				}
				JOINT RightShoulder
				{
					OFFSET	-0.080363	 0.000306	 0.159706
					CHANNELS 3 Zrotation Xrotation Yrotation
					JOINT RightArm
					{
						OFFSET	 0.000000	 0.000000	 0.164196
						CHANNELS 3 Zrotation Xrotation Yrotation
						JOINT RightForeArm
						{
							OFFSET	 0.000000	 0.000000	 0.365611
							CHANNELS 3 Zrotation Xrotation Yrotation
							JOINT RightHand
							{
								OFFSET	 0.000000	 0.000000	 0.360648
								CHANNELS 3 Zrotation Xrotation Yrotation
								JOINT RightHandIndex1
								{
									OFFSET	 0.000000	 0.000000	 0.069977
									CHANNELS 3 Zrotation Xrotation Yrotation
									JOINT RightHandIndex2
									{
										OFFSET	 0.000000	 0.000000	 0.052305
										CHANNELS 3 Zrotation Xrotation Yrotation
										JOINT RightHandIndex3
										{
											OFFSET	 0.009002	-0.000782	 0.042196
											CHANNELS 3 Zrotation Xrotation Yrotation
											End Site
											{
												OFFSET	 0.009002	-0.000782	 0.042196
											}
										}
									}
								}
							}
						}
					}
				}
			}
		}
	}
}
MOTION
Frames:    6
Frame Time: 0.03333334
-0.713359	-0.006145	 1.273095	-176.324600	-7.184560	-1.558001	 14.681410	 10.399990	 176.669200	-6.135363	-0.509122	-0.067917	-2.367622	 63.910540	-4.140266	-2.385833	 28.452760	 0.000004	-12.084940	 4.587546	-175.554700	 3.610694	-13.338040	 0.885071	 6.278205	 70.449000	-1.444597	 2.384659	 28.388700	-0.000001	 9.754637	 8.125358	-0.857105	 6.728611	 15.064520	 10.234040	-22.502520	-7.683514	-19.391620	-91.776150	 78.527400	 180.000000	 18.188260	-3.006510	 6.169350	-15.259430	-2.300498	-36.267250	-1.837988	-11.213640	-2.273964	-4.130354	 21.526190	 0.991307	-5.167926	 0.731697	 3.519349	-1.378229	 35.397820	-2.634230	-9.317956	 1.535556	 4.441564	-10.519160	-18.033510	-7.329290	 89.782130	 78.203890	 180.000000	 55.988320	 3.107522	 13.394840	 8.573532	-1.295631	 21.275210	 30.548620	 30.074730	-25.256650	 5.716295	 19.173350	-3.684826	 5.027458	 0.246833	-9.377971	-2.350882	 35.473990	 5.254307
-0.713346	-0.006148	 1.273083	-176.227000	-7.301770	-1.549289	 14.979350	 10.494660	 176.562200	-6.306974	-0.509298	-0.069494	-1.980866	 63.702340	-4.363499	-2.385833	 28.452760	 0.000004	-12.226480	 4.761023	-175.511600	 3.731554	-13.264120	 0.908111	 6.253700	 70.170880	-1.554617	 2.384659	 28.388700	-0.000001	 9.688665	 8.243719	-0.935541	 6.711686	 15.089780	 10.337570	-22.561980	-7.620430	-19.469300	-91.776150	 78.527420	 180.000000	 18.453190	-2.822385	 6.443114	-15.242240	-2.368809	-36.919820	-2.031932	-11.389780	-2.298747	-4.130354	 21.526190	 0.991307	-5.167926	 0.731697	 3.519349	-1.378229	 35.397820	-2.634230	-9.430911	 1.572992	 4.605870	-10.610760	-18.045910	-7.604421	 89.782100	 78.203850	 180.000000	 56.457010	 3.522640	 12.906060	 8.727926	-1.300747	 22.295210	 31.402790	 29.906400	-24.907180	 5.716295	 19.173350	-3.684826	 5.027458	 0.246833	-9.377971	-2.350882	 35.473990	 5.254307
-0.713425	-0.006154	 1.273044	-176.147500	-7.307775	-1.501388	 14.857670	 10.503540	 176.520600	-6.210037	-0.506419	-0.068240	-2.259647	 63.780150	-4.170581	-2.385833	 28.452760	 0.000004	-12.120140	 4.856415	-175.571600	 3.644211	-13.192650	 0.883282	 6.756188	 70.243890	-2.019659	 2.384659	 28.388700	-0.000001	 9.555691	 8.249018	-1.105371	 6.585342	 14.884960	 10.562340	-22.396670	-7.278759	-19.415310	-91.776130	 78.527400	 180.000000	 17.853160	-2.378951	 6.762316	-15.025200	-2.635218	-38.018150	-1.961687	-11.273150	-2.330928	-4.130354	 21.526190	 0.991307	-5.167926	 0.731697	 3.519349	-1.378229	 35.397820	-2.634230	-9.385386	 1.528675	 4.724314	-10.549040	-17.810730	-7.819414	 89.782060	 78.203820	-180.000000	 55.476020	 3.504486	 11.976010	 8.773096	-1.402613	 24.158420	 31.747870	 29.497520	-23.818440	 5.716295	 19.173350	-3.684826	 5.027458	 0.246833	-9.377971	-2.350882	 35.473990	 5.254307
-0.713552	-0.006175	 1.272956	-176.027700	-7.326034	-1.446229	 14.697300	 10.536010	 176.458700	-6.081398	-0.506747	-0.067124	-2.689506	 63.911490	-3.854643	-2.385833	 28.452760	 0.000004	-11.968170	 5.010230	-175.637100	 3.527002	-13.106420	 0.850919	 7.441257	 70.364460	-2.653446	 2.384659	 28.388700	-0.000001	 9.333103	 8.278370	-1.336261	 6.381263	 14.545780	 10.887400	-22.150590	-6.767242	-19.326040	-91.776310	 78.527400	-179.999900	 16.896020	-1.467612	 7.430483	-14.751210	-3.083670	-40.222420	-1.879796	-11.102210	-2.373784	-4.130354	 21.526190	 0.991307	-5.167926	 0.731697	 3.519349	-1.378229	 35.397820	-2.634230	-9.316848	 1.459311	 4.885062	-10.457260	-17.466730	-8.114127	 89.782140	 78.203900	 180.000000	 53.939600	 3.656129	 10.245670	 8.861655	-1.589758	 27.621400	 32.511600	 28.753550	-22.392280	 5.716295	 19.173350	-3.684826	 5.027458	 0.246833	-9.377971	-2.350882	 35.473990	 5.254307
-0.713908	-0.006264	 1.272547	-175.841200	-7.419021	-1.674327	 14.954670	 10.754840	 176.511400	-6.171061	-0.507391	-0.068012	-3.369815	 64.234310	-3.051688	-2.385833	 28.452760	 0.000004	-11.799640	 4.929218	-175.357000	 3.561085	-13.825610	 0.904899	 7.096663	 70.867430	-2.309426	 2.384659	 28.388700	-0.000001	 8.828446	 8.544258	-1.198283	 5.995949	 13.765600	 11.088980	-21.810850	-6.104989	-19.001940	-91.776210	 78.527420	-180.000000	 15.408600	 1.335229	 9.521114	-14.658790	-3.970240	-46.713090	-2.025638	-11.072900	-2.418538	-4.130354	 21.526190	 0.991307	-5.167926	 0.731697	 3.519349	-1.378229	 35.397820	-2.634230	-9.161592	 1.229795	 4.812310	-10.316040	-16.962180	-7.972234	 89.782180	 78.203920	 179.999900	 51.543350	 5.228181	 5.619707	 9.068241	-2.114638	 36.757910	 35.880020	 27.930130	-19.711900	 5.716295	 19.173350	-3.684826	 5.027458	 0.246833	-9.377971	-2.350882	 35.473990	 5.254307
-0.714252	-0.006412	 1.271978	-175.821300	-7.403160	-1.938025	 15.354240	 8.405520	 176.598400	-6.346196	-5.641145	-0.772436	-5.689055	 66.870970	-0.375235	-2.385833	 28.452760	 0.000004	-11.254780	 4.623611	-175.106900	 3.428819	-15.008000	 0.946183	 6.647089	 71.795170	-1.652104	 2.384659	 28.388700	-0.000001	 8.260105	 8.679316	-0.892967	 5.491758	 12.826480	 11.122310	-21.352470	-5.492464	-18.591420	-91.776240	 78.527400	-179.999900	 13.195350	 5.754268	 11.928170	-15.096980	-4.691997	-54.881380	-2.338612	-11.102810	-2.444958	-4.130354	 21.526190	 0.991307	-5.167926	 0.731697	 3.519349	-1.378229	 35.397820	-2.634230	-8.782430	 0.691504	 4.500128	-10.017720	-16.172990	-7.102406	 89.782070	 78.203850	-180.000000	 47.913380	 7.361903	 0.386295	 9.164342	-2.963534	 47.297660	 38.885600	 27.043500	-16.757750	 5.716295	 19.173350	-3.684826	 5.027458	 0.246833	-9.377971	-2.350882	 35.473990	 5.254307
